<?xml version="1.0" standalone="no"?>
<!DOCTYPE svg PUBLIC "-//W3C//DTD SVG 20010904//EN"
 "http://www.w3.org/TR/2001/REC-SVG-20010904/DTD/svg10.dtd">
<svg version="1.0" xmlns="http://www.w3.org/2000/svg"
 width="1920.000000pt" height="1080.000000pt" viewBox="0 0 1920.000000 1080.000000"
 preserveAspectRatio="xMidYMid meet">

<g transform="translate(0.000000,1080.000000) scale(0.100000,-0.100000)"
fill="#000000" stroke="none">
<path d="M9285 9875 c38 -19 71 -33 73 -31 4 5 -125 66 -136 65 -4 0 24 -15
63 -34z"/>
<path d="M9385 9827 c11 -8 52 -31 90 -51 39 -20 85 -46 103 -57 18 -11 31
-15 27 -10 -7 12 -189 116 -220 127 l-20 6 20 -15z"/>
<path d="M9631 9686 c2 -2 15 -9 29 -15 24 -11 24 -11 6 3 -16 13 -49 24 -35
12z"/>
<path d="M9700 9646 c0 -3 9 -10 20 -16 11 -6 20 -8 20 -6 0 3 -9 10 -20 16
-11 6 -20 8 -20 6z"/>
<path d="M9767 9599 c7 -7 15 -10 18 -7 3 3 -2 9 -12 12 -14 6 -15 5 -6 -5z"/>
<path d="M10229 9220 c116 -115 285 -325 386 -480 56 -85 183 -328 215 -410
12 -30 23 -57 26 -59 2 -2 62 18 134 44 l130 48 -53 34 c-28 19 -74 46 -102
60 -136 70 -196 125 -320 292 -149 202 -317 394 -431 491 -22 19 -15 10 15
-20z"/>
<path d="M13311 8157 c28 -21 59 -36 59 -29 0 5 -11 14 -25 20 -24 11 -44 16
-34 9z"/>
<path d="M13390 8110 c8 -5 20 -10 25 -10 6 0 3 5 -5 10 -8 5 -19 10 -25 10
-5 0 -3 -5 5 -10z"/>
<path d="M14071 7575 c8 -11 32 -42 55 -70 135 -163 299 -460 367 -665 33 -99
66 -235 84 -344 l8 -49 130 -32 c147 -37 278 -75 378 -111 38 -13 71 -24 75
-24 4 0 -33 23 -83 50 -177 100 -331 231 -410 350 -23 36 -70 119 -103 185
-102 204 -195 349 -346 535 -84 105 -180 213 -155 175z"/>
<path d="M4371 7034 c0 -11 3 -14 6 -6 3 7 2 16 -1 19 -3 4 -6 -2 -5 -13z"/>
<path d="M4384 6934 c18 -180 56 -351 99 -444 34 -73 109 -202 114 -197 2 3 0
13 -6 24 -53 90 -191 556 -191 641 0 17 -5 34 -11 38 -8 5 -9 -13 -5 -62z"/>
<path d="M15185 6270 c3 -5 11 -10 16 -10 6 0 7 5 4 10 -3 6 -11 10 -16 10 -6
0 -7 -4 -4 -10z"/>
<path d="M15250 6246 c0 -2 7 -7 16 -10 8 -3 12 -2 9 4 -6 10 -25 14 -25 6z"/>
<path d="M15320 6210 c8 -5 20 -10 25 -10 6 0 3 5 -5 10 -8 5 -19 10 -25 10
-5 0 -3 -5 5 -10z"/>
<path d="M15394 6176 c11 -9 24 -16 30 -16 12 0 7 5 -24 19 -24 11 -24 11 -6
-3z"/>
<path d="M15440 6156 c0 -7 113 -66 118 -62 2 3 -23 19 -57 35 -34 17 -61 29
-61 27z"/>
<path d="M15577 6079 c7 -7 15 -10 18 -7 3 3 -2 9 -12 12 -14 6 -15 5 -6 -5z"/>
<path d="M15724 5991 c7 -11 46 -35 46 -28 0 3 -12 12 -26 22 -15 9 -23 12
-20 6z"/>
<path d="M4835 5862 c9 -18 13 -37 10 -42 -3 -6 3 -10 14 -10 28 0 26 10 -9
50 l-31 35 16 -33z"/>
<path d="M16230 5589 c0 -4 24 -31 53 -60 29 -30 87 -97 129 -149 324 -405
502 -787 589 -1266 27 -150 38 -515 20 -685 -120 -1148 -1024 -2124 -2271
-2452 -133 -35 -272 -64 -435 -89 l-140 -22 -4408 -3 -4409 -3 -173 25 c-451
65 -829 205 -1185 437 -606 395 -1025 1028 -1136 1718 l-13 85 5 -85 c36 -569
244 -991 712 -1441 181 -174 313 -275 600 -458 20 -13 109 -61 197 -106 351
-182 722 -298 1145 -361 184 -27 880 -32 4445 -32 3667 0 4327 5 4560 33 915
109 1724 553 2216 1215 100 136 109 149 109 159 0 6 5 11 10 11 6 0 10 5 10
11 0 6 13 29 29 53 30 44 139 264 173 351 11 27 26 64 33 80 28 63 80 256 105
390 6 33 15 82 21 110 41 206 32 605 -17 830 -113 516 -316 933 -667 1371 -89
112 -305 346 -307 333z"/>
<path d="M8075 5379 c-70 -11 -110 -24 -160 -54 -110 -64 -198 -191 -214 -311
-31 -218 117 -426 340 -479 167 -39 332 6 449 124 108 108 151 254 116 388
-46 174 -191 305 -366 333 -73 11 -93 11 -165 -1z m270 -182 c56 -31 82 -85
66 -137 -43 -143 -261 -119 -261 29 0 51 22 86 69 111 47 25 77 24 126 -3z"/>
<path d="M11415 5380 c-27 -5 -65 -13 -83 -19 -97 -30 -207 -129 -256 -231
-29 -61 -31 -73 -31 -175 0 -103 2 -114 32 -178 106 -223 392 -319 625 -210
150 71 257 229 258 380 1 271 -263 481 -545 433z m265 -180 c53 -27 70 -55 70
-113 0 -42 -5 -54 -33 -82 -62 -62 -158 -55 -204 14 -43 64 -23 145 45 180 47
26 73 26 122 1z"/>
<path d="M9385 4840 c-17 -19 -18 -26 -7 -90 14 -81 46 -170 72 -202 l19 -23
43 41 c53 50 78 65 151 92 133 50 307 17 412 -79 29 -27 57 -49 63 -49 5 0 21
24 34 53 48 99 65 251 31 261 -10 2 -194 7 -408 11 -390 7 -390 7 -410 -15z"/>
</g>
</svg>
