<?xml version="1.0" standalone="no"?>
<!DOCTYPE svg PUBLIC "-//W3C//DTD SVG 20010904//EN"
 "http://www.w3.org/TR/2001/REC-SVG-20010904/DTD/svg10.dtd">
<svg version="1.0" xmlns="http://www.w3.org/2000/svg"
 width="1024.000000pt" height="1024.000000pt" viewBox="0 0 1024.000000 1024.000000"
 preserveAspectRatio="xMidYMid meet">

<g transform="translate(0.000000,1024.000000) scale(0.100000,-0.100000)"
fill="#000000" stroke="none">
<path d="M6225 9903 c-64 -17 -190 -65 -213 -80 -15 -11 -44 -28 -64 -38 -21
-11 -38 -23 -38 -27 0 -5 -7 -8 -15 -8 -8 0 -30 -13 -48 -30 -19 -16 -39 -30
-45 -30 -6 0 -12 -3 -14 -8 -1 -4 -23 -23 -48 -41 -25 -19 -54 -43 -65 -53
-197 -177 -281 -262 -370 -373 -16 -20 -46 -57 -65 -81 -56 -68 -72 -91 -144
-200 -22 -32 -46 -65 -53 -72 -7 -7 -13 -18 -13 -23 0 -11 -41 -72 -52 -77 -5
-2 -8 -12 -8 -22 0 -10 -6 -25 -13 -32 -12 -12 -74 -125 -171 -312 -43 -82
-50 -88 -148 -110 -34 -8 -57 -44 -37 -58 8 -5 29 -6 48 -4 l35 5 -37 -35
c-20 -20 -37 -44 -37 -53 0 -22 19 -41 35 -34 15 5 9 -33 -6 -43 -5 -3 -9 -12
-9 -19 0 -8 -11 -38 -25 -67 -14 -29 -31 -73 -38 -98 l-13 -45 -66 -6 c-54 -4
-79 -13 -137 -48 -39 -23 -71 -46 -71 -52 0 -5 -11 -14 -25 -19 -14 -5 -30
-21 -35 -35 -5 -14 -14 -25 -20 -25 -8 0 -41 -49 -87 -133 -35 -63 -73 -160
-89 -227 -26 -110 -30 -310 -9 -391 41 -155 42 -154 -25 -329 -18 -47 -40
-108 -51 -137 -10 -28 -30 -73 -44 -99 -14 -26 -25 -53 -25 -60 0 -7 -12 -33
-27 -58 l-27 -44 -40 21 c-61 31 -140 83 -155 101 -7 9 -17 16 -22 16 -11 0
-121 83 -139 104 -7 9 -18 16 -24 16 -7 0 -23 11 -35 24 -13 14 -56 48 -97 77
-41 29 -74 57 -74 61 0 4 -6 8 -13 8 -7 0 -26 14 -42 30 -16 17 -33 30 -38 30
-4 0 -20 11 -35 25 -15 14 -57 50 -94 81 -38 31 -68 60 -68 65 0 5 -6 9 -12 9
-7 0 -24 11 -38 24 -53 52 -140 131 -250 227 -19 17 -78 65 -130 107 -52 42
-99 82 -103 89 -4 7 -14 13 -22 13 -8 0 -18 6 -22 14 -4 7 -33 31 -63 52 -30
21 -56 42 -58 46 -2 5 -10 8 -17 8 -7 0 -26 10 -42 23 -44 36 -121 76 -201
104 -173 60 -274 -8 -302 -205 -15 -111 13 -316 65 -462 13 -36 26 -78 30 -95
4 -16 17 -54 31 -83 13 -29 24 -58 24 -66 0 -7 14 -40 30 -74 17 -34 30 -67
30 -72 0 -5 13 -36 29 -67 96 -194 122 -244 151 -298 18 -33 44 -82 57 -110
14 -27 29 -52 32 -55 4 -3 14 -18 23 -35 32 -65 91 -171 102 -185 7 -8 18 -26
24 -40 7 -14 28 -50 47 -80 19 -30 40 -66 47 -80 14 -27 54 -90 100 -157 15
-23 28 -44 28 -48 0 -4 14 -24 30 -45 17 -21 30 -43 30 -48 0 -6 6 -17 13 -24
7 -7 31 -40 53 -72 52 -79 63 -95 102 -150 17 -25 45 -66 62 -90 16 -24 36
-49 45 -56 8 -7 15 -18 15 -26 0 -7 14 -21 30 -31 17 -9 30 -20 30 -24 0 -3
-13 -20 -30 -37 -16 -18 -30 -35 -30 -39 0 -5 -14 -22 -30 -40 -17 -18 -30
-36 -30 -41 0 -5 -9 -21 -21 -36 -28 -35 -74 -131 -98 -203 -49 -147 -52 -165
-52 -327 0 -88 -4 -165 -9 -170 -14 -18 -39 -158 -50 -283 -12 -132 1 -372 24
-483 8 -36 20 -92 26 -125 17 -82 66 -238 96 -303 13 -29 24 -58 24 -64 0 -6
14 -35 30 -65 17 -29 30 -59 30 -67 0 -8 4 -16 8 -18 5 -1 23 -24 40 -50 18
-26 42 -53 53 -59 18 -9 20 -17 14 -57 -12 -90 -57 -277 -77 -327 -49 -121
-56 -150 -47 -199 5 -25 21 -62 36 -82 29 -37 176 -154 193 -154 6 0 10 -22
10 -48 0 -54 57 -259 93 -337 71 -152 121 -251 133 -263 8 -7 14 -19 14 -25 0
-7 25 -37 55 -67 30 -30 55 -58 55 -62 0 -5 4 -8 9 -8 5 0 33 -15 62 -32 50
-32 56 -33 158 -33 122 0 139 7 219 83 54 51 111 142 136 216 8 23 24 62 34
87 11 24 31 93 44 154 25 120 20 113 118 151 25 9 57 31 72 48 33 36 36 72 12
153 -9 30 -14 57 -11 60 7 6 126 -12 312 -47 83 -16 217 -34 300 -40 82 -6
152 -13 156 -16 4 -2 -4 -30 -17 -61 -27 -67 -30 -122 -9 -162 15 -31 92 -101
109 -101 5 0 44 -14 85 -31 75 -31 76 -32 104 -93 15 -33 27 -65 27 -70 0 -5
13 -30 28 -55 16 -25 32 -58 35 -72 4 -14 18 -42 32 -63 14 -20 25 -41 25 -46
0 -5 14 -29 30 -53 17 -25 30 -49 30 -55 0 -22 103 -163 152 -206 63 -56 159
-111 209 -120 48 -8 133 10 192 42 71 38 149 128 193 222 44 96 54 121 63 161
6 24 22 77 36 117 14 41 25 84 25 97 0 19 38 196 56 256 3 10 28 24 57 34 28
9 64 25 78 36 15 10 31 19 35 19 4 0 21 12 36 27 l28 27 0 294 c0 202 4 300
12 315 6 12 49 60 95 107 120 121 123 124 123 137 0 7 6 16 13 20 14 9 107
146 107 158 0 4 14 27 30 52 17 24 30 50 30 58 0 8 4 16 9 19 5 4 19 27 31 54
12 26 35 73 51 105 16 32 29 63 29 68 0 5 9 28 20 52 57 122 120 463 120 653
0 49 -7 117 -16 149 -8 33 -19 119 -24 190 -6 72 -17 169 -26 215 -8 47 -19
108 -24 135 -9 57 -57 206 -90 280 -12 28 -33 74 -46 103 -23 49 -23 54 -8 77
9 14 20 25 25 25 5 0 9 5 9 11 0 6 12 25 26 43 14 17 55 69 90 116 35 47 73
96 84 110 11 14 51 66 89 115 38 50 79 100 90 113 12 12 21 26 21 30 0 5 14
21 30 37 17 16 30 34 30 41 0 7 6 17 13 21 8 4 31 32 52 61 22 28 43 52 47 52
4 0 8 6 8 13 0 7 14 26 30 42 17 16 30 33 30 38 0 5 10 19 23 31 12 12 47 55
77 94 30 40 58 72 63 72 4 0 7 6 7 13 0 7 14 26 30 42 17 16 30 34 30 41 0 7
6 17 14 21 13 7 115 138 156 198 8 12 35 50 60 85 25 34 50 71 56 82 6 10 20
29 31 41 11 12 30 39 42 60 13 21 28 43 34 50 7 7 19 24 27 39 8 14 27 43 41
64 14 22 38 62 53 89 16 28 32 55 36 60 15 19 90 165 90 175 0 5 14 38 30 72
17 34 30 69 30 77 0 9 9 45 20 79 13 43 20 91 20 145 -1 70 -5 89 -28 131 -15
27 -36 54 -47 60 -11 6 -22 14 -25 17 -20 24 -82 43 -140 43 -85 0 -192 -36
-415 -140 -28 -13 -53 -24 -57 -24 -4 0 -30 -13 -58 -30 -28 -16 -55 -30 -61
-30 -11 0 -72 -41 -77 -52 -2 -5 -12 -8 -22 -8 -10 0 -25 -6 -32 -13 -7 -8
-36 -26 -63 -41 -27 -16 -60 -37 -74 -47 -13 -10 -29 -19 -37 -19 -7 0 -14 -4
-16 -9 -1 -4 -30 -26 -62 -47 -84 -56 -96 -64 -166 -114 -34 -25 -71 -50 -82
-56 -11 -6 -31 -22 -46 -36 -15 -13 -49 -40 -76 -59 -27 -19 -59 -44 -73 -56
-13 -13 -28 -23 -33 -23 -4 0 -21 -13 -37 -30 -15 -16 -32 -30 -37 -30 -5 0
-25 -15 -46 -32 -69 -61 -102 -88 -107 -88 -3 0 -36 -27 -73 -60 -37 -33 -70
-60 -73 -60 -3 0 -16 -9 -29 -20 -12 -10 -45 -38 -73 -61 -27 -22 -61 -51 -75
-62 -14 -12 -35 -27 -48 -34 -22 -12 -24 -10 -43 35 -11 26 -25 67 -31 92 -6
25 -19 77 -29 115 -10 39 -22 104 -28 145 -6 41 -24 167 -41 280 -75 510 -94
855 -88 1590 l3 415 38 85 c21 47 46 93 54 103 9 9 21 26 27 36 17 30 89 135
96 141 12 9 56 114 67 160 54 216 45 438 -22 543 -42 66 -155 111 -230 90z
m110 -92 c113 -52 144 -176 97 -381 -38 -163 -70 -233 -177 -385 -22 -32 -43
-62 -47 -69 -95 -160 -93 -145 -93 -886 0 -685 10 -894 55 -1195 16 -104 32
-212 35 -238 4 -27 13 -74 21 -105 9 -31 19 -81 24 -110 10 -57 42 -170 90
-318 17 -50 30 -96 30 -104 0 -7 -64 -76 -142 -154 -86 -85 -148 -154 -155
-173 -15 -43 -1 -43 44 2 19 19 39 35 44 35 4 0 18 14 31 30 12 17 27 30 33
30 6 0 21 14 33 30 13 17 29 30 37 30 8 0 15 4 15 9 0 5 51 51 113 102 147
122 144 120 175 152 15 15 32 27 39 27 6 0 16 6 20 13 4 7 53 48 108 90 112
87 132 103 191 150 22 17 57 43 77 57 20 14 37 28 37 33 0 4 6 7 13 7 7 0 26
14 42 30 16 17 32 30 37 30 7 0 73 47 124 88 12 9 33 24 47 32 59 35 142 93
145 101 2 5 10 9 17 9 8 0 20 6 27 14 17 16 147 96 157 96 5 0 19 9 32 21 13
12 44 32 69 45 55 30 103 59 151 90 19 13 40 24 47 24 6 0 31 13 55 30 25 16
50 30 56 30 6 0 36 14 66 30 30 17 60 30 66 30 5 0 29 9 51 20 38 18 109 38
196 55 47 10 135 -21 168 -58 46 -52 48 -130 6 -289 -10 -40 -76 -173 -97
-198 -7 -8 -23 -39 -35 -67 -12 -29 -26 -53 -31 -53 -5 0 -9 -6 -9 -14 0 -14
-46 -89 -95 -155 -14 -19 -25 -40 -25 -48 0 -7 -4 -13 -8 -13 -4 0 -23 -26
-42 -57 -19 -32 -37 -60 -40 -63 -9 -8 -90 -132 -90 -137 0 -3 -12 -20 -27
-38 -16 -18 -39 -47 -53 -65 -42 -55 -98 -124 -119 -148 -11 -12 -25 -31 -31
-42 -6 -11 -20 -30 -33 -44 -12 -13 -27 -30 -32 -38 -6 -7 -38 -49 -72 -93
-33 -44 -68 -86 -77 -94 -9 -7 -16 -18 -16 -23 0 -5 -11 -21 -25 -36 -21 -22
-111 -136 -180 -227 -8 -11 -30 -39 -48 -61 -17 -23 -48 -63 -67 -89 -19 -25
-47 -61 -62 -80 -16 -18 -28 -37 -28 -43 0 -6 -6 -15 -14 -19 -8 -4 -40 -44
-72 -88 -31 -43 -63 -85 -70 -92 -7 -7 -16 -22 -19 -33 -3 -11 -10 -20 -15
-20 -4 0 -23 -24 -40 -52 -18 -29 -36 -55 -40 -58 -4 -3 -13 -17 -21 -32 -8
-14 -36 -57 -63 -94 -26 -38 -51 -75 -54 -84 -3 -8 -16 -29 -29 -46 -13 -17
-23 -34 -23 -38 0 -3 -12 -24 -26 -46 -25 -38 -30 -67 -9 -52 6 4 35 39 65 77
30 39 60 74 67 78 7 4 13 14 13 22 0 8 8 20 18 27 10 7 27 25 36 41 10 15 22
27 26 27 4 0 18 -24 30 -52 13 -29 33 -75 45 -103 31 -70 81 -232 106 -348 38
-169 14 -292 -73 -383 -24 -24 -45 -44 -48 -44 -3 0 -34 -26 -68 -59 -34 -32
-87 -78 -119 -102 -32 -24 -64 -50 -71 -57 -7 -6 -17 -12 -22 -12 -5 0 -29
-13 -53 -30 -25 -16 -48 -30 -52 -30 -3 0 -25 -12 -48 -27 -41 -27 -105 -60
-237 -121 -166 -77 -201 -92 -210 -92 -5 0 -34 -11 -64 -25 -30 -14 -61 -25
-68 -25 -7 0 -24 -6 -38 -13 -50 -26 -279 -97 -405 -126 -138 -31 -203 -39
-432 -52 -316 -18 -687 1 -904 46 -230 47 -373 85 -451 120 -32 14 -84 36
-115 49 -32 13 -84 36 -116 50 -32 14 -61 26 -64 26 -19 0 -282 140 -321 170
-13 11 -31 20 -38 20 -7 0 -17 6 -21 13 -4 8 -33 32 -63 54 -73 54 -315 309
-357 378 -50 80 -48 71 -45 250 1 94 7 194 13 222 11 57 54 173 67 182 5 3 24
32 43 64 46 79 47 81 104 166 28 41 55 81 60 90 36 57 100 147 107 149 4 2 8
10 8 18 0 8 9 23 20 34 10 10 31 39 46 62 14 24 31 48 38 53 6 6 18 22 26 37
30 52 93 143 101 146 5 2 9 10 9 17 0 7 11 27 25 43 14 17 25 33 25 36 0 9 43
70 53 74 4 2 7 9 7 15 0 6 11 27 24 46 25 39 67 110 104 174 12 23 29 48 37
57 8 9 15 24 15 33 0 9 5 19 10 22 6 4 24 32 41 63 16 31 45 84 64 117 48 86
175 344 175 356 0 6 14 40 30 76 17 35 30 69 30 74 0 5 9 28 19 52 22 47 70
180 78 215 3 12 8 22 12 22 3 0 26 -18 50 -40 55 -49 138 -89 213 -103 52 -9
62 -8 145 22 48 18 104 44 124 59 57 43 106 88 111 102 2 7 17 -7 33 -31 57
-82 140 -149 214 -172 166 -52 340 23 474 204 23 31 46 70 84 144 14 27 43
111 55 160 17 66 13 332 -4 390 -23 73 -62 158 -81 174 -10 7 -17 20 -17 27 0
8 -5 14 -10 14 -6 0 -22 11 -36 25 -13 13 -56 40 -96 60 -98 48 -173 49 -262
4 -71 -36 -116 -68 -169 -121 -21 -21 -42 -38 -47 -38 -5 0 -16 15 -23 33 -8
17 -24 41 -36 51 -11 11 -21 25 -21 33 0 7 -4 13 -8 13 -5 0 -22 13 -38 30
-16 16 -33 30 -39 30 -7 0 -72 30 -124 57 -1 1 6 19 16 40 21 42 57 119 93
200 25 56 57 78 147 102 45 12 103 65 103 93 0 31 -30 32 -86 5 -30 -15 -58
-27 -62 -27 -11 0 49 39 84 54 31 14 51 51 33 62 -5 3 -28 3 -51 -1 l-41 -7
51 93 c27 52 62 116 76 143 14 27 30 54 35 60 4 6 20 33 35 59 14 26 31 53 36
60 9 10 53 76 85 126 14 23 156 214 169 227 6 7 25 28 41 48 61 72 243 250
354 346 111 95 135 115 176 145 39 30 48 35 126 75 21 11 58 30 80 41 23 12
58 26 78 31 20 5 50 13 66 18 45 12 56 11 100 -9z m-1620 -1571 c-3 -5 -12
-10 -18 -10 -7 0 -6 4 3 10 19 12 23 12 15 0z m-42 -501 c27 -16 50 -29 53
-29 7 0 67 -70 81 -94 37 -65 45 -91 32 -111 -44 -68 -94 -183 -117 -265 -35
-128 -37 -307 -4 -387 l21 -51 -30 -31 c-16 -17 -29 -35 -29 -41 0 -5 -6 -10
-13 -10 -7 0 -23 -11 -35 -25 -12 -13 -52 -39 -89 -57 -96 -46 -172 -46 -265
0 -110 54 -160 123 -203 276 -25 89 -27 109 -22 215 7 171 58 323 149 447 40
53 112 119 157 143 14 8 28 17 31 21 16 21 116 38 190 32 26 -2 65 -16 93 -33z
m636 -29 c118 -22 231 -159 260 -314 26 -140 5 -367 -44 -467 -14 -29 -25 -57
-25 -61 0 -21 -88 -138 -144 -191 -127 -122 -262 -154 -394 -93 -67 31 -155
115 -165 158 -3 13 -18 57 -32 98 -26 71 -27 82 -23 230 3 99 9 166 18 185 34
77 40 94 40 107 0 16 54 103 102 166 127 166 236 215 407 182z m-3355 -225
c26 -8 64 -25 84 -37 20 -13 44 -27 53 -33 66 -40 217 -146 228 -159 7 -9 19
-16 26 -16 8 0 15 -4 17 -8 2 -5 27 -26 56 -46 28 -21 52 -42 52 -47 0 -5 6
-9 13 -9 7 0 26 -13 42 -30 16 -16 33 -30 38 -30 5 0 21 -12 36 -27 15 -16 43
-39 61 -53 19 -14 52 -42 74 -62 21 -21 43 -38 47 -38 4 0 16 -11 27 -25 11
-14 24 -25 28 -25 5 0 20 -11 34 -25 30 -30 240 -208 295 -250 21 -16 49 -40
61 -52 12 -13 26 -23 31 -23 5 0 22 -13 38 -30 16 -16 33 -30 37 -30 5 0 19
-9 31 -21 12 -12 38 -31 57 -44 19 -12 41 -30 49 -39 7 -9 18 -16 24 -16 6 0
20 -9 31 -19 41 -38 218 -151 236 -151 30 0 34 -20 11 -51 -11 -15 -21 -34
-21 -42 0 -7 -6 -19 -12 -25 -13 -13 -55 -86 -104 -179 -15 -29 -31 -53 -35
-53 -4 0 -11 -10 -15 -22 -4 -13 -20 -42 -35 -65 -16 -23 -29 -45 -29 -49 0
-8 -69 -116 -100 -156 -11 -14 -20 -33 -20 -42 0 -9 -4 -16 -8 -16 -5 0 -23
-27 -42 -60 -19 -33 -37 -60 -41 -60 -4 0 -11 -10 -15 -22 -3 -12 -15 -30 -25
-41 -10 -11 -25 -34 -33 -51 -8 -17 -26 -45 -40 -61 -14 -17 -26 -35 -26 -42
0 -6 -4 -13 -9 -15 -4 -1 -25 -28 -44 -58 -20 -30 -51 -76 -69 -101 -71 -99
-65 -94 -85 -78 -10 8 -24 23 -32 33 -8 10 -22 26 -33 35 -10 8 -18 21 -18 27
0 6 -7 18 -16 25 -13 11 -56 70 -99 138 -5 9 -20 29 -32 44 -13 16 -23 35 -23
42 0 7 -4 15 -9 17 -4 2 -26 30 -47 62 -22 32 -56 84 -76 115 -21 31 -40 63
-43 71 -4 8 -11 22 -16 30 -5 8 -17 28 -27 44 -9 15 -27 43 -38 61 -12 17 -47
81 -79 141 -107 201 -117 219 -126 222 -5 2 -9 12 -9 22 0 10 -6 25 -14 32
-16 16 -39 61 -149 284 -105 213 -127 258 -127 266 0 4 -13 36 -30 71 -16 36
-30 71 -30 79 0 15 -44 125 -54 135 -3 3 -6 13 -6 22 0 9 -13 50 -29 91 -68
178 -83 339 -40 444 37 91 89 113 193 81z m756 -3753 c0 -6 9 -21 19 -34 11
-12 53 -63 94 -113 111 -134 217 -232 349 -323 79 -54 141 -92 150 -92 5 0 29
-13 53 -30 24 -16 47 -30 52 -30 4 0 35 -13 68 -29 109 -52 175 -81 185 -81 5
0 39 -13 75 -30 36 -16 72 -30 79 -30 8 0 46 -13 84 -30 39 -16 79 -30 89 -30
10 0 53 -12 96 -25 44 -14 107 -30 140 -35 34 -5 116 -19 182 -32 112 -21 146
-23 520 -23 379 0 407 1 525 24 69 13 148 27 176 31 87 13 289 80 457 151 37
16 72 29 77 29 5 0 34 11 64 25 30 14 58 25 63 25 4 0 57 24 118 54 60 30 126
62 145 70 56 25 136 71 295 169 11 6 22 15 25 18 3 3 28 22 55 43 46 35 149
126 248 219 35 33 42 36 50 21 17 -30 0 -82 -44 -134 -23 -27 -47 -50 -53 -50
-6 0 -16 -8 -23 -18 -6 -11 -47 -45 -90 -78 -43 -32 -79 -62 -81 -66 -2 -4
-10 -8 -17 -8 -7 0 -26 -11 -42 -24 -15 -13 -41 -30 -58 -39 -16 -8 -41 -25
-54 -36 -13 -12 -32 -21 -43 -21 -10 0 -18 -4 -18 -9 0 -5 -13 -14 -30 -21
-16 -7 -30 -16 -30 -21 0 -5 -8 -9 -18 -9 -11 0 -38 -13 -60 -30 -23 -16 -45
-30 -49 -30 -4 0 -58 -25 -119 -55 -62 -30 -118 -55 -126 -55 -8 0 -34 -10
-59 -22 -24 -11 -69 -29 -99 -39 -30 -9 -77 -26 -105 -37 -110 -44 -453 -132
-515 -132 -14 0 -79 -12 -145 -26 -210 -44 -517 -43 -810 3 -55 8 -131 18
-170 23 -38 4 -106 17 -149 29 -44 11 -88 21 -99 21 -21 0 -164 45 -290 91
-43 16 -84 29 -90 29 -15 0 -140 51 -367 151 -127 56 -346 183 -385 223 -5 6
-26 23 -45 37 -48 36 -200 190 -200 203 0 6 -12 22 -25 35 -14 13 -25 29 -25
37 0 8 -4 14 -8 14 -4 0 -16 14 -26 31 -15 26 -17 43 -11 105 l7 74 19 -24
c10 -13 19 -29 19 -34z m0 -238 c0 -6 11 -21 25 -34 14 -13 25 -28 25 -32 0
-10 69 -78 79 -78 3 -1 33 -27 65 -60 l59 -60 -11 -51 c-7 -28 -12 -99 -12
-159 0 -88 4 -116 20 -152 39 -81 49 -94 94 -117 43 -21 46 -21 78 -5 18 9 53
32 77 50 49 38 104 53 126 34 29 -24 16 -54 -46 -115 -76 -75 -108 -123 -115
-178 -10 -70 9 -117 73 -180 32 -31 62 -57 67 -57 5 0 31 -13 58 -30 26 -16
55 -30 63 -30 9 0 33 -11 55 -25 73 -46 305 -84 410 -66 144 23 163 50 158
225 l-3 121 26 3 c29 3 48 -18 70 -83 20 -59 73 -138 107 -157 39 -23 160 -25
202 -3 115 60 185 149 235 299 l20 61 255 0 c275 0 328 6 595 66 72 16 139 29
150 29 22 0 166 40 260 72 33 11 80 26 105 33 25 7 71 25 104 39 32 14 63 26
68 26 5 0 39 14 75 30 35 17 68 30 73 30 5 0 37 14 72 32 35 17 78 38 96 47
17 8 32 19 32 23 0 5 9 8 19 8 11 0 26 6 33 13 7 8 36 26 63 41 27 16 60 37
74 47 13 10 28 19 33 19 5 0 18 8 29 18 10 11 32 25 47 33 15 7 41 24 57 37
17 13 76 59 133 103 56 43 102 84 102 89 0 6 6 10 14 10 8 0 24 12 36 28 l21
27 -5 -100 c-10 -218 -52 -439 -105 -555 -11 -25 -21 -51 -21 -58 0 -27 -149
-329 -165 -336 -6 -2 -29 3 -50 11 -149 56 -233 55 -351 -2 -41 -20 -74 -41
-74 -46 0 -5 -8 -13 -17 -16 -22 -8 -246 -232 -262 -261 -6 -11 -11 -47 -11
-78 0 -52 4 -62 32 -91 18 -18 38 -33 45 -33 22 0 87 -45 121 -84 25 -29 32
-46 32 -79 0 -57 -10 -68 -61 -74 -34 -3 -52 1 -78 19 -116 78 -129 80 -206
44 -107 -51 -143 -135 -144 -342 -1 -129 14 -220 41 -250 l20 -22 -109 -7
c-227 -16 -536 18 -644 70 -29 14 -59 25 -66 25 -25 0 -94 51 -103 76 -7 17
-6 58 1 121 15 127 8 246 -16 273 -10 11 -22 20 -27 20 -4 0 -8 -34 -8 -75 l0
-75 -52 1 c-170 1 -435 40 -653 95 -55 14 -120 29 -145 35 -25 5 -62 16 -83
24 -20 8 -58 20 -84 25 -25 6 -70 22 -100 35 -29 14 -60 25 -69 25 -8 0 -40
13 -72 28 -31 16 -73 35 -92 42 -19 8 -37 17 -40 20 -3 3 -30 18 -60 33 -65
33 -113 60 -120 68 -12 14 -148 99 -159 99 -6 0 -11 4 -11 8 0 5 -21 24 -47
43 -27 18 -111 97 -188 174 -139 139 -221 245 -244 317 -7 20 -18 41 -26 48
-7 6 -16 23 -19 38 -4 15 -17 63 -30 107 -37 122 -76 392 -83 560 l-6 150 31
-30 c17 -16 32 -35 32 -41z m400 -358 c8 -7 33 -22 55 -33 22 -11 56 -29 75
-38 19 -10 44 -23 55 -28 11 -6 31 -16 45 -23 14 -7 54 -26 90 -42 36 -17 95
-44 133 -61 37 -17 72 -31 78 -31 6 0 36 -12 67 -26 31 -14 77 -32 102 -39 25
-8 72 -23 105 -34 111 -38 199 -61 272 -71 40 -5 114 -19 165 -31 51 -11 142
-25 202 -30 61 -5 112 -12 115 -14 10 -10 -44 -153 -78 -205 -61 -93 -99 -126
-164 -140 -46 -11 -65 -11 -99 -1 -50 15 -108 66 -108 95 0 12 -11 39 -25 61
-13 22 -29 50 -34 62 -7 14 -23 23 -50 28 -55 9 -76 0 -96 -41 -15 -32 -15
-45 -5 -118 16 -105 2 -144 -63 -171 -68 -27 -199 -30 -282 -6 -91 26 -185 59
-199 69 -6 5 -31 16 -55 26 -83 32 -169 110 -182 166 -5 19 -6 55 -3 80 9 69
40 112 137 191 43 36 48 67 17 117 -18 30 -23 32 -74 32 -49 0 -62 -5 -127
-50 -40 -27 -80 -50 -89 -50 -19 0 -62 37 -78 67 -17 31 -26 169 -17 266 l7
87 46 -26 c26 -14 54 -32 62 -38z m3787 -695 l33 -25 -26 -45 c-15 -25 -35
-55 -45 -67 -11 -11 -19 -24 -19 -28 0 -5 -12 -24 -27 -43 -32 -41 -266 -277
-307 -310 -45 -37 -17 -52 48 -27 14 5 16 -5 16 -74 0 -43 5 -104 10 -133 6
-30 15 -92 21 -139 5 -47 12 -99 15 -115 8 -41 -28 -75 -125 -121 -42 -20 -89
-42 -105 -50 -16 -8 -39 -14 -51 -14 -11 0 -25 -4 -31 -8 -37 -34 -246 -81
-270 -61 -29 24 -43 103 -46 259 -3 148 -2 157 22 204 28 55 96 106 139 106
15 -1 44 -12 66 -25 129 -79 165 -84 222 -32 32 30 36 40 36 80 0 72 -42 130
-138 195 -87 58 -100 80 -85 149 8 33 32 61 203 231 9 9 27 27 39 40 12 12 30
22 40 22 10 0 18 4 18 9 0 5 21 18 48 30 40 18 63 21 157 19 99 -3 113 -5 142
-27z m-3815 -252 c27 -26 87 -73 133 -103 46 -31 87 -60 90 -66 3 -5 15 -10
25 -10 10 0 20 -3 22 -7 5 -12 66 -53 77 -53 6 0 27 -12 48 -26 21 -14 93 -52
159 -84 111 -54 165 -76 264 -110 19 -7 69 -25 110 -40 41 -16 89 -31 106 -35
53 -10 100 -99 92 -174 -3 -32 -9 -38 -71 -69 -87 -44 -178 -56 -365 -48 -110
5 -162 12 -230 32 -48 15 -101 30 -118 34 -35 8 -74 25 -214 93 -155 75 -208
115 -308 228 l-23 27 19 43 c29 66 32 75 63 197 15 62 31 140 35 172 8 69 13
69 86 -1z m188 -782 c101 -42 276 -97 307 -97 13 0 64 -7 115 -16 58 -10 131
-14 200 -12 l108 3 -6 -55 c-4 -30 -15 -77 -24 -105 -40 -110 -60 -159 -68
-164 -5 -3 -15 -18 -23 -33 -21 -40 -128 -158 -163 -179 -23 -14 -50 -19 -104
-19 -67 0 -78 3 -125 35 -75 50 -158 158 -219 285 -49 103 -98 231 -98 255 0
11 -9 53 -20 93 -25 90 -25 87 8 64 15 -11 65 -35 112 -55z m3070 -236 c0 -40
-45 -260 -65 -315 -14 -38 -25 -75 -25 -81 0 -14 -62 -145 -93 -196 -34 -55
-108 -139 -123 -139 -8 0 -14 -4 -14 -9 0 -14 -77 -41 -116 -41 -100 0 -231
102 -316 245 -23 38 -47 77 -54 85 -11 14 -39 62 -76 135 -44 83 -101 235 -93
244 3 2 42 -1 87 -7 120 -17 465 -15 563 3 146 26 222 45 266 64 51 23 59 24
59 12z"/>
<path d="M5874 9118 c-11 -5 -33 -34 -49 -65 -22 -45 -25 -57 -14 -64 23 -14
28 -11 59 38 49 77 51 113 4 91z"/>
<path d="M5320 8260 c-13 -24 -1 -51 32 -74 27 -19 16 -20 -28 -4 -25 9 -39 8
-64 -2 l-32 -13 29 -23 c15 -13 32 -23 36 -24 5 0 25 -13 45 -28 20 -16 64
-48 97 -73 33 -24 64 -50 68 -56 12 -20 44 -34 61 -27 31 12 17 69 -29 122
l-20 23 48 -20 c60 -26 67 -26 67 -1 0 35 -29 79 -68 104 -20 13 -48 33 -61
45 -13 11 -30 21 -38 21 -7 0 -31 11 -53 25 -48 30 -76 32 -90 5z"/>
<path d="M5599 6534 c-18 -22 -1 -46 39 -56 44 -12 49 -27 16 -54 -31 -25
-206 -114 -224 -114 -6 0 -36 -11 -65 -25 -30 -13 -67 -27 -82 -31 -16 -3 -62
-17 -103 -30 -41 -13 -129 -36 -195 -51 -112 -26 -134 -28 -345 -28 -203 0
-234 2 -315 23 -49 13 -120 38 -158 54 -37 17 -70 29 -72 26 -11 -10 7 -37 28
-44 12 -4 41 -20 64 -36 32 -22 45 -39 54 -71 19 -71 0 -193 -52 -328 -16 -41
-29 -79 -29 -83 0 -5 -13 -25 -30 -46 -16 -21 -30 -42 -30 -46 0 -14 -129
-146 -156 -160 -22 -12 -27 -10 -57 19 -38 38 -87 71 -94 63 -24 -24 65 -131
170 -205 65 -46 174 -97 257 -121 103 -30 312 -38 430 -17 161 30 235 48 290
74 125 58 202 98 217 115 9 10 20 18 25 18 41 0 303 267 322 328 4 12 11 22
16 22 10 0 90 146 90 166 0 8 4 14 9 14 8 0 38 63 84 180 14 36 38 122 53 191
27 126 28 126 48 108 11 -11 24 -19 29 -19 4 0 15 -7 23 -15 16 -16 54 -21 54
-7 0 10 -76 82 -86 82 -4 0 -19 11 -33 24 -23 21 -158 96 -173 96 -3 0 -11 -7
-19 -16z m-280 -933 c9 -6 10 -14 5 -23 -16 -27 -63 -78 -71 -78 -5 0 -22 -13
-38 -30 -16 -16 -33 -30 -38 -30 -4 0 -23 -11 -40 -24 -74 -55 -243 -132 -332
-152 -211 -48 -333 -55 -476 -28 -115 22 -115 21 -79 77 16 26 30 49 30 52 0
6 76 79 109 105 45 34 150 78 212 90 68 13 209 13 209 0 0 -5 -15 -27 -33 -47
-40 -45 -56 -89 -27 -73 10 5 27 21 38 35 11 14 22 25 25 25 2 0 31 12 63 27
140 63 213 82 324 82 58 0 111 -3 119 -8z"/>
<path d="M7403 5690 c-41 -48 -44 -80 -8 -80 14 0 25 4 25 8 0 5 13 22 30 38
16 16 30 39 30 52 0 37 -40 28 -77 -18z"/>
<path d="M3924 4926 c-36 -36 -44 -66 -18 -66 18 0 84 38 84 48 0 4 3 17 6 30
10 35 -32 28 -72 -12z"/>
<path d="M3129 4263 c-24 -29 -42 -70 -35 -81 11 -18 65 8 81 39 8 15 15 35
15 44 0 21 -43 20 -61 -2z"/>
<path d="M4770 3829 c-35 -67 -12 -132 25 -75 19 29 34 85 28 104 -9 24 -33
11 -53 -29z"/>
<path d="M3866 3549 c-64 -76 7 -169 130 -169 38 0 64 13 64 33 0 5 -27 7 -62
3 -53 -5 -68 -3 -95 14 -43 26 -45 74 -7 119 19 23 22 31 11 31 -8 0 -27 -14
-41 -31z"/>
<path d="M3726 3515 c-36 -36 -33 -132 6 -186 33 -46 90 -98 108 -99 8 0 23
-7 34 -15 10 -8 42 -19 70 -25 41 -9 60 -8 96 3 108 36 112 38 197 111 44 38
42 53 -4 26 -125 -75 -187 -100 -248 -100 -51 0 -69 5 -108 30 -26 17 -52 30
-57 30 -6 0 -10 4 -10 8 0 5 -13 23 -30 42 -31 35 -45 93 -38 155 5 40 5 40
-16 20z"/>
<path d="M4483 7345 c-25 -17 -73 -133 -73 -175 0 -41 42 -104 79 -120 26 -11
35 -10 68 7 48 25 71 64 79 135 8 70 -1 123 -27 149 -23 23 -95 26 -126 4z"/>
<path d="M5053 7278 c-76 -84 -87 -205 -25 -270 29 -31 90 -39 114 -15 7 7 21
16 31 20 45 17 76 174 45 230 -29 50 -40 57 -93 57 -41 0 -56 -5 -72 -22z"/>
<path d="M2755 6480 c-9 -15 14 -50 34 -50 10 0 32 -7 50 -16 25 -13 35 -13
47 -4 12 11 10 16 -18 36 -17 13 -42 24 -54 24 -13 0 -26 5 -29 10 -8 13 -22
13 -30 0z"/>
<path d="M3395 1139 c-13 -21 6 -98 27 -113 28 -20 38 -12 38 30 0 63 -44 118
-65 83z"/>
</g>
</svg>
