<svg xmlns="http://www.w3.org/2000/svg" width="176" height="176" viewBox="0 0 176 176">
	<path d="M126.917 175.25c-1-6.556-6.668-11.669-13.56-11.669a13.66 13.66 0 0 0-13.558 11.67zm-30.563-.001c-1-6.556-6.668-11.669-13.559-11.669a13.66 13.66 0 0 0-13.559 11.67z" />
	<path fill="#ed1c24" d="M78.573 152.009v19.24h14.78v-48.454h-14.78v19.909a8.24 8.24 0 0 0-1.445 4.652a8.24 8.24 0 0 0 1.445 4.653m6.89-9.766a5.1 5.1 0 0 0-5.112 5.113c0 2.89 2.223 5.111 5.112 5.111s5.112-2.222 5.112-5.111a5.1 5.1 0 0 0-5.112-5.113m31.784.302v-19.75h-14.78v48.455h14.78v-19.082a8.25 8.25 0 0 0 1.556-4.812a8.25 8.25 0 0 0-1.556-4.811m-6.779-.302a5.1 5.1 0 0 0-5.112 5.113c0 2.89 2.223 5.111 5.112 5.111s5.112-2.222 5.112-5.111a5.1 5.1 0 0 0-5.112-5.113m32.417-67.132l2.702-41.78h4.334l2.086 41.912a7.2 7.2 0 0 1 2.582 5.543a7.21 7.21 0 0 1-6.886 7.216c-5.058 5.866-13.917 13.998-27.121 18.9V86.455s12.223 1.658 19.567-5.316a7.2 7.2 0 0 1 2.736-6.027m4.48 1.896c-2.112 0-3.89 1.778-3.89 3.89s1.778 3.89 3.89 3.89s3.89-1.779 3.89-3.89s-1.667-3.89-3.89-3.89m-94.43-1.897l-2.702-41.78h-4.335l-1.976 41.823a7.2 7.2 0 0 0-2.69 5.632a7.21 7.21 0 0 0 6.886 7.216c5.058 5.866 13.917 13.998 27.12 18.9V86.455s-12.223 1.658-19.567-5.316q.008-.175.008-.352a7.2 7.2 0 0 0-2.744-5.675m-4.48 1.896c-2.111 0-3.89 1.778-3.89 3.89s1.779 3.89 3.89 3.89s3.89-1.779 3.89-3.89s-1.778-3.89-3.89-3.89" />
	
</svg>